<?xml version="1.0" encoding="UTF-8"?>
<svg version="1.1" xmlns="http://www.w3.org/2000/svg" width="351" height="365">
<path d="M0 0 C8.08638156 5.65894995 15.01497839 13.68502456 16.83203125 23.64453125 C17.64727445 36.50131752 16.80945986 46.45391823 8.4609375 56.83203125 C1.84903064 64.18916503 -5.90980818 69.24770402 -15.92578125 69.8828125 C-28.45755488 70.20152641 -37.58681072 68.25518405 -47.16796875 59.64453125 C-55.13268904 51.80886893 -58.38131333 43.59470839 -58.48046875 32.51953125 C-58.50280008 20.80923117 -54.74820827 12.33315119 -46.5078125 3.95703125 C-33.70069773 -7.71232162 -14.61065284 -9.13494871 0 0 Z M-4.16796875 13.64453125 C-4.49796875 14.30453125 -4.82796875 14.96453125 -5.16796875 15.64453125 C-4.52859375 16.71703125 -3.88921875 17.78953125 -3.23046875 18.89453125 C0.15943694 25.36724317 0.07307376 33.27101781 -1.8984375 40.21875 C-3.35952838 43.44507722 -4.86001067 45.37709397 -7.54296875 47.70703125 C-10.97528066 48.93285693 -12.70931938 48.79741437 -16.16796875 47.64453125 C-20.20391578 44.43411884 -22.10247498 41.6814109 -23.16796875 36.64453125 C-23.6799448 28.66848335 -23.6799448 28.66848335 -22.16796875 25.64453125 C-20.84796875 25.64453125 -19.52796875 25.64453125 -18.16796875 25.64453125 C-18.06319363 31.43044636 -18.1754633 36.93762491 -19.16796875 42.64453125 C-18.17796875 42.64453125 -17.18796875 42.64453125 -16.16796875 42.64453125 C-14.12425242 36.51338227 -12.83428231 30.94365033 -15.35546875 24.70703125 C-17.04100944 22.49449857 -17.04100944 22.49449857 -19.60546875 21.58203125 C-22.31667237 21.38827093 -22.31667237 21.38827093 -24.41796875 23.45703125 C-27.81025092 27.69738396 -27.63168141 31.37506925 -27.16796875 36.64453125 C-25.85381903 42.36677375 -23.29608578 46.51641422 -19.16796875 50.64453125 C-16.12681401 52.48523017 -14.36250428 52.64453125 -10.79296875 52.64453125 C-4.88180135 51.01386438 -1.56633316 47.76463213 1.76953125 42.70703125 C4.18908384 35.85924091 4.09523106 27.23236959 1.70703125 20.44921875 C0.52215143 18.08619138 -0.71442739 15.85079938 -2.16796875 13.64453125 C-2.82796875 13.64453125 -3.48796875 13.64453125 -4.16796875 13.64453125 Z M-44.16796875 31.64453125 C-44.6657007 37.61731462 -43.54331816 41.65988212 -40.16796875 46.64453125 C-37.38093029 49.89741476 -34.74623487 51.49497967 -30.54296875 52.58203125 C-27.28264714 52.64240758 -25.81996941 52.4478917 -23.16796875 50.64453125 C-23.16796875 49.98453125 -23.16796875 49.32453125 -23.16796875 48.64453125 C-24.99328125 48.73734375 -24.99328125 48.73734375 -26.85546875 48.83203125 C-30.83101584 48.79697352 -33.10307952 48.36887723 -36.16796875 45.64453125 C-39.34641946 40.87685518 -40.69597624 36.30844138 -41.16796875 30.64453125 C-42.39157555 30.56999565 -42.39157555 30.56999565 -44.16796875 31.64453125 Z " fill="#A365FF" transform="translate(58.16796875,5.35546875)"/>
</svg>
