<svg width="351" height="365" viewBox="0 0 1024 1024" fill="none" xmlns="http://www.w3.org/2000/svg">
<g clip-path="url(#clip0_236_463)">
<path d="M215.579 431.158C334.64 431.158 431.158 334.64 431.158 215.579C431.158 96.518 334.64 0 215.579 0C96.518 0 0 96.518 0 215.579C0 334.64 96.518 431.158 215.579 431.158Z" fill="#172430"/>
<path d="M1024 808.422C1024 927.481 927.481 1024 808.422 1024C689.36 1024 592.841 927.481 592.841 808.422C592.841 689.36 689.36 592.84 808.422 592.84C927.481 592.84 1024 689.36 1024 808.422Z" fill="#088DB2"/>
<path d="M215.579 1024C334.64 1024 431.158 927.483 431.158 808.422C431.158 689.361 334.64 592.843 215.579 592.843C96.518 592.843 0 689.361 0 808.422C0 927.483 96.518 1024 215.579 1024Z" fill="#088DB2"/>
<path d="M808.422 431.158C927.483 431.158 1024 334.64 1024 215.579C1024 96.518 927.483 0 808.422 0C689.361 0 592.843 96.518 592.843 215.579C592.843 334.64 689.361 431.158 808.422 431.158Z" fill="#32B8B2"/>
<path d="M425.586 747.066C425.586 747.066 449.167 771.941 519.902 771.941C590.64 771.941 627.691 693.172 627.691 693.172L703.028 995.738C574.118 930.769 460.177 918.393 331.272 989.594L425.586 747.066Z" fill="#088DB2"/>
<path d="M188.632 592.843C188.632 592.843 395.951 547.82 485.054 458.105C574.154 368.391 592.843 215.58 592.843 215.58L808.422 431.16C808.422 431.16 654.994 476.181 565.895 565.895C476.795 655.609 431.16 781.476 431.16 781.476L188.632 592.843Z" fill="url(#paint0_linear_236_463)"/>
</g>
<defs>
<linearGradient id="paint0_linear_236_463" x1="673.684" y1="323.37" x2="377.265" y2="619.792" gradientUnits="userSpaceOnUse">
<stop stop-color="#32B8B2"/>
<stop offset="1" stop-color="#088DB2"/>
</linearGradient>
<clipPath id="clip0_236_463">
<rect width="1024" height="1024" fill="white"/>
</clipPath>
</defs>
</svg>
